<?xml version="1.0" encoding="UTF-8"?>
<svg xmlns="http://www.w3.org/2000/svg" xmlns:xlink="http://www.w3.org/1999/xlink" width="100px" height="47px" viewBox="0 0 100 47" version="1.1">
<g id="surface1">
<path style=" stroke:none;fill-rule:nonzero;fill:rgb(89.411765%,23.921569%,29.803922%);fill-opacity:1;" d="M 94.21875 31.464844 L 94.21875 31.796875 L 93.304688 31.796875 L 93.304688 34.164062 L 92.929688 34.164062 L 92.929688 31.796875 L 92.015625 31.796875 L 92.015625 31.464844 Z M 94.21875 31.464844 "/>
<path style=" stroke:none;fill-rule:nonzero;fill:rgb(89.411765%,23.921569%,29.803922%);fill-opacity:1;" d="M 94.632812 31.464844 L 95.175781 31.464844 L 95.964844 33.75 L 96.753906 31.464844 L 97.25 31.464844 L 97.25 34.167969 L 96.917969 34.167969 L 96.917969 31.878906 L 96.132812 34.167969 L 95.757812 34.167969 L 94.964844 31.878906 L 94.964844 34.167969 L 94.632812 34.167969 Z M 94.632812 31.464844 "/>
<path style=" stroke:none;fill-rule:nonzero;fill:rgb(89.411765%,23.921569%,29.803922%);fill-opacity:1;" d="M 10.230469 20.746094 C 8.898438 21.660156 8.566406 23.449219 8.566406 24.984375 L 8.566406 35.875 C 8.566406 37.957031 9.191406 40.453125 11.933594 40.738281 C 11.96875 40.832031 11.980469 40.929688 11.976562 41.03125 C 11.984375 41.894531 12.292969 42.730469 12.847656 43.398438 C 13.402344 44.097656 14.242188 44.507812 15.136719 44.519531 C 16.300781 44.519531 17.671875 43.730469 17.835938 41.488281 C 17.867188 41.226562 17.882812 40.960938 17.878906 40.695312 L 18.542969 40.695312 C 19.539062 40.695312 20.789062 40.613281 21.785156 39.785156 C 22.449219 39.242188 23.035156 38.613281 23.53125 37.910156 C 24.710938 39.671875 26.6875 40.734375 28.808594 40.738281 C 28.992188 40.800781 29.160156 40.898438 29.304688 41.03125 L 29.304688 41.070312 C 29.390625 42.691406 30.96875 43.898438 32.960938 43.898438 C 34.832031 43.898438 36.246094 42.734375 36.453125 41.03125 C 36.742188 41.570312 37.234375 41.976562 37.824219 42.152344 C 37.824219 42.566406 37.785156 42.984375 37.742188 43.398438 C 37.660156 43.953125 37.660156 44.511719 37.742188 45.0625 C 37.992188 46.351562 39.363281 47.101562 40.566406 47.101562 C 41.261719 47.105469 41.921875 46.816406 42.394531 46.3125 C 42.914062 45.734375 43.15625 44.960938 43.058594 44.191406 C 42.980469 43.460938 42.84375 42.738281 42.644531 42.03125 C 42.632812 41.960938 42.621094 41.890625 42.601562 41.820312 C 43.726562 41.324219 44.140625 40.03125 44.265625 38.453125 C 45.054688 40.367188 46.675781 40.742188 47.800781 40.742188 L 48.589844 40.742188 C 48.964844 40.742188 49.34375 40.699219 49.710938 40.617188 C 49.675781 41.179688 49.578125 41.738281 49.421875 42.28125 C 49.160156 43.195312 49.34375 44.183594 49.917969 44.941406 C 50.484375 45.675781 51.359375 46.105469 52.285156 46.105469 C 53.078125 46.105469 53.832031 45.773438 54.367188 45.191406 C 54.988281 44.472656 55.261719 43.511719 55.113281 42.574219 C 55.03125 41.824219 54.949219 41.199219 54.90625 40.699219 L 54.90625 40.574219 C 55.53125 40.726562 56.175781 40.796875 56.816406 40.785156 L 57.191406 40.785156 C 58.066406 40.792969 58.929688 40.609375 59.726562 40.242188 C 60.28125 40.601562 60.933594 40.792969 61.597656 40.785156 L 61.972656 40.785156 C 62.832031 40.832031 63.667969 40.496094 64.257812 39.871094 C 64.984375 40.492188 65.917969 40.820312 66.875 40.785156 L 70.894531 40.785156 C 71.09375 42.277344 72.378906 43.386719 73.886719 43.363281 C 74.851562 43.375 75.769531 42.945312 76.378906 42.199219 C 76.296875 43.0625 76.582031 43.925781 77.171875 44.566406 C 77.601562 45.023438 78.207031 45.28125 78.832031 45.273438 C 79.476562 45.253906 80.089844 44.988281 80.535156 44.523438 C 81.132812 43.871094 81.433594 43 81.367188 42.113281 C 81.359375 41.792969 81.332031 41.476562 81.285156 41.160156 C 82.035156 40.535156 82.53125 39.746094 82.78125 38.246094 C 83.527344 40.367188 85.273438 40.742188 86.394531 40.742188 L 87.183594 40.742188 C 89.386719 40.742188 90.84375 39.539062 91.136719 37.414062 L 91.261719 36.582031 L 90.679688 35.960938 C 90.511719 35.792969 90.34375 35.542969 90.34375 34.378906 C 90.34375 33.214844 90.261719 31.84375 89.472656 30.636719 C 89.886719 30.09375 90.183594 29.46875 90.34375 28.808594 C 90.710938 28.972656 91.109375 29.058594 91.507812 29.058594 C 92.285156 29.054688 93.027344 28.722656 93.542969 28.140625 C 94.121094 27.480469 94.378906 26.601562 94.25 25.730469 L 94.167969 25.109375 C 94.003906 23.445312 93.753906 21.199219 93.710938 20.492188 C 95.292969 19.660156 95.5 17.542969 95.5 15.464844 L 95.5 7.859375 L 96.464844 7.859375 C 98.503906 7.859375 100 6.195312 100 3.953125 C 100 1.707031 98.492188 0 96.464844 0 L 86.234375 0 C 85.171875 -0.0078125 84.171875 0.488281 83.53125 1.332031 C 82.230469 0.421875 80.671875 -0.046875 79.085938 0 L 77.300781 0 C 73.019531 0 70.609375 2.992188 70.191406 6.277344 L 69.363281 3.449219 C 68.53125 0.585938 66.828125 0 65.488281 0 L 64.367188 0 C 63.285156 0 61.335938 0.457031 60.503906 3.367188 L 57.71875 12.933594 C 57.226562 12.6875 56.6875 12.5625 56.140625 12.5625 C 56.636719 11.890625 56.886719 11.066406 56.847656 10.230469 C 56.855469 9.394531 56.597656 8.578125 56.105469 7.902344 C 58.144531 7.902344 59.597656 6.238281 59.597656 3.953125 C 59.597656 1.664062 58.101562 0.0429688 56.0625 0.0429688 L 49.292969 0.0429688 C 47.503906 0.0429688 46.464844 0.832031 45.925781 1.914062 C 45.539062 1.503906 45.089844 1.152344 44.597656 0.875 C 43.484375 0.292969 42.238281 0.0078125 40.980469 0.0429688 L 35.660156 0.0429688 C 33.75 0.0429688 32.710938 0.957031 32.171875 2.207031 C 31.738281 1.6875 31.21875 1.25 30.632812 0.917969 C 29.53125 0.304688 28.285156 0.00390625 27.027344 0.0429688 L 21.574219 0.0429688 C 20.203125 0.0429688 19.285156 0.5 18.664062 1.207031 C 18.039062 0.5 17.125 0.0429688 15.753906 0.0429688 L 13.222656 0.0429688 C 11.683594 0.0429688 10.5625 0.625 9.941406 1.75 C 9.273438 0.585938 8.234375 0.0429688 6.738281 0.0429688 L 3.996094 0.0429688 C 0.714844 0.0429688 0 2.703125 0 4.949219 L 0 15.507812 C -0.0429688 16.4375 0.0859375 17.367188 0.375 18.25 C 0.53125 18.582031 0.710938 18.902344 0.914062 19.207031 C 1.164062 19.539062 1.164062 19.539062 1.121094 19.703125 C 1.085938 20.09375 1.03125 20.484375 0.953125 20.871094 C 0.800781 21.621094 0.730469 22.390625 0.746094 23.15625 C 0.886719 24.484375 1.992188 25.5 3.328125 25.527344 C 4.652344 25.507812 5.71875 24.4375 5.734375 23.113281 C 5.761719 22.433594 5.75 21.753906 5.695312 21.078125 C 5.652344 20.660156 5.652344 20.246094 5.652344 19.828125 C 5.777344 19.652344 5.917969 19.488281 6.070312 19.332031 L 6.484375 18.917969 C 7.109375 19.914062 8.105469 20.703125 9.351562 20.703125 L 9.640625 20.703125 C 9.824219 20.710938 10.007812 20.738281 10.183594 20.785156 "/>
<path style=" stroke:none;fill-rule:nonzero;fill:rgb(100%,88.627451%,54.901961%);fill-opacity:1;" d="M 22.039062 31.46875 C 21.730469 31.074219 21.332031 30.761719 20.875 30.554688 C 21.292969 30.347656 21.664062 30.050781 21.953125 29.683594 C 22.550781 28.847656 22.859375 27.839844 22.828125 26.8125 C 22.917969 25.171875 22.085938 23.617188 20.667969 22.78125 C 19.828125 22.328125 18.878906 22.113281 17.921875 22.160156 L 12.519531 22.160156 C 10.941406 22.160156 10.316406 22.992188 10.316406 25.277344 L 10.316406 35.882812 C 10.316406 38.171875 10.980469 39.003906 12.519531 39.003906 C 13.308594 39.339844 13.792969 40.144531 13.722656 41 C 13.722656 42.578125 15.882812 43.742188 16.089844 41.332031 C 16.300781 38.878906 15.71875 39.335938 16.589844 39.003906 C 17.464844 38.671875 19.582031 39.292969 20.703125 38.378906 C 21.910156 37.382812 22.90625 36.136719 22.90625 34.347656 C 22.933594 33.320312 22.628906 32.308594 22.039062 31.46875 Z M 15.140625 26.476562 L 16.46875 26.476562 C 16.835938 26.4375 17.203125 26.523438 17.507812 26.726562 C 17.59375 26.769531 17.632812 26.851562 17.71875 26.9375 C 17.96875 27.238281 18.085938 27.628906 18.046875 28.019531 C 18.007812 28.410156 17.816406 28.769531 17.507812 29.015625 C 17.1875 29.179688 16.832031 29.265625 16.46875 29.265625 L 15.140625 29.265625 Z M 17.71875 34.417969 C 17.394531 34.582031 17.039062 34.667969 16.679688 34.667969 L 15.097656 34.667969 L 15.097656 31.925781 L 16.679688 31.925781 C 17.039062 31.925781 17.394531 32.011719 17.71875 32.175781 C 18.0625 32.445312 18.261719 32.859375 18.253906 33.296875 C 18.289062 33.742188 18.082031 34.171875 17.710938 34.421875 Z M 17.71875 34.417969 "/>
<path style=" stroke:none;fill-rule:nonzero;fill:rgb(100%,88.627451%,54.901961%);fill-opacity:1;" d="M 36.367188 33.050781 L 36.367188 25.277344 C 36.410156 24.574219 36.328125 23.867188 36.117188 23.195312 C 35.882812 22.574219 35.289062 22.164062 34.625 22.15625 L 34.332031 22.15625 C 33.660156 22.179688 33.070312 22.605469 32.835938 23.234375 C 32.628906 23.910156 32.542969 24.613281 32.585938 25.316406 L 32.585938 31.554688 C 32.628906 32.257812 32.546875 32.960938 32.335938 33.632812 C 32.113281 34.273438 31.515625 34.703125 30.84375 34.714844 L 30.5625 34.714844 C 29.890625 34.691406 29.300781 34.265625 29.0625 33.632812 C 28.855469 32.960938 28.773438 32.257812 28.816406 31.554688 L 28.816406 25.316406 C 28.816406 23.027344 28.148438 22.195312 26.613281 22.195312 L 26.199219 22.195312 C 24.621094 22.195312 23.996094 23.027344 23.996094 25.316406 L 23.996094 33.011719 C 23.996094 36.832031 26.074219 38.996094 29.191406 38.996094 C 29.816406 39.246094 31.023438 39.660156 31.0625 40.988281 C 31.105469 42.320312 34.597656 42.863281 34.722656 40.742188 C 34.84375 38.617188 34.597656 38.746094 35.175781 37.957031 C 35.757812 37.164062 36.339844 36.667969 36.382812 33.050781 Z M 36.367188 33.050781 "/>
<path style=" stroke:none;fill-rule:nonzero;fill:rgb(100%,88.627451%,54.901961%);fill-opacity:1;" d="M 49.957031 34.378906 C 49.957031 33.128906 49.875 32.34375 49.375 31.59375 C 49.097656 31.15625 48.710938 30.796875 48.253906 30.554688 C 48.691406 30.359375 49.078125 30.058594 49.375 29.683594 C 49.953125 28.839844 50.257812 27.835938 50.246094 26.8125 C 50.339844 25.171875 49.503906 23.617188 48.085938 22.78125 C 47.246094 22.328125 46.296875 22.113281 45.34375 22.160156 L 39.9375 22.160156 C 38.359375 22.160156 37.734375 22.992188 37.734375 25.277344 L 37.734375 38.585938 C 37.734375 39.585938 37.820312 40.5 38.605469 40.5 C 39.394531 40.5 39.605469 40.832031 39.605469 42.164062 C 39.605469 43.492188 39.3125 44.074219 39.4375 44.699219 C 39.5625 45.320312 41.433594 45.945312 41.308594 44.324219 C 41.183594 42.703125 40.519531 41.746094 40.8125 40.996094 C 41.101562 40.246094 40.8125 40.371094 41.476562 40.332031 C 42.140625 40.246094 42.515625 39.875 42.515625 35.84375 L 42.515625 32.425781 L 43.929688 32.425781 C 44.460938 32.421875 44.957031 32.707031 45.214844 33.171875 C 45.507812 33.671875 45.507812 34.335938 45.507812 35.792969 C 45.507812 37.953125 46.171875 38.914062 47.710938 38.914062 L 48.5 38.914062 C 49.746094 38.914062 50.535156 38.414062 50.746094 37.082031 C 50.121094 36.5 49.957031 35.667969 49.957031 34.378906 Z M 45.46875 27.894531 C 45.503906 28.351562 45.300781 28.789062 44.929688 29.058594 C 44.609375 29.222656 44.25 29.308594 43.890625 29.308594 L 42.519531 29.308594 L 42.519531 26.523438 L 43.890625 26.523438 C 44.25 26.519531 44.609375 26.605469 44.929688 26.769531 C 45.3125 27.011719 45.519531 27.449219 45.46875 27.894531 Z M 45.46875 27.894531 "/>
<path style=" stroke:none;fill-rule:nonzero;fill:rgb(100%,88.627451%,54.901961%);fill-opacity:1;" d="M 75.429688 36.871094 C 75.429688 35.585938 74.722656 34.710938 73.640625 34.710938 L 69.484375 34.710938 L 69.484375 32.46875 L 71.148438 32.46875 C 72.0625 32.46875 72.640625 31.71875 72.640625 30.636719 C 72.640625 29.554688 72.0625 28.808594 71.148438 28.808594 L 69.484375 28.808594 L 69.484375 26.523438 L 73.640625 26.523438 C 74.683594 26.523438 75.429688 25.648438 75.429688 24.359375 C 75.429688 23.070312 74.722656 22.199219 73.640625 22.199219 L 66.867188 22.199219 C 65.292969 22.199219 64.667969 23.03125 64.667969 25.320312 L 64.667969 35.925781 C 64.667969 38.214844 65.332031 39.046875 66.867188 39.046875 L 70.734375 39.046875 C 72.023438 39.046875 72.605469 39.171875 72.605469 40.292969 C 72.605469 42.246094 75.308594 41.957031 75.390625 40.210938 C 75.472656 38.464844 75.433594 36.882812 75.433594 36.882812 Z M 75.429688 36.871094 "/>
<path style=" stroke:none;fill-rule:nonzero;fill:rgb(100%,88.627451%,54.901961%);fill-opacity:1;" d="M 93.761719 15.507812 L 93.761719 6.113281 L 96.464844 6.113281 C 97.503906 6.113281 98.253906 5.242188 98.253906 3.953125 C 98.253906 2.660156 97.535156 1.789062 96.464844 1.789062 L 86.234375 1.789062 C 85.191406 1.789062 84.445312 2.660156 84.445312 3.953125 C 84.445312 5.242188 85.152344 6.113281 86.234375 6.113281 L 88.9375 6.113281 L 88.9375 15.46875 C 88.9375 16.550781 89.058594 19.128906 89.890625 19.128906 C 90.71875 19.128906 91.011719 20.414062 91.011719 20.625 C 90.929688 22.414062 90.761719 24.199219 90.511719 25.945312 C 90.179688 27.648438 92.714844 27.855469 92.507812 25.945312 C 92.304688 24.035156 92.011719 21.457031 91.96875 20.625 C 91.925781 19.792969 91.761719 19.296875 92.21875 19.128906 C 92.675781 18.960938 93.714844 19.542969 93.753906 15.511719 "/>
<path style=" stroke:none;fill-rule:nonzero;fill:rgb(100%,88.627451%,54.901961%);fill-opacity:1;" d="M 88.566406 34.210938 C 88.566406 32.964844 88.480469 32.175781 87.984375 31.425781 C 87.707031 30.988281 87.320312 30.632812 86.859375 30.386719 C 87.300781 30.191406 87.6875 29.894531 87.984375 29.515625 C 88.5625 28.671875 88.867188 27.671875 88.855469 26.648438 C 88.945312 25.003906 88.113281 23.449219 86.695312 22.617188 C 85.863281 22.160156 84.929688 22.125 83.980469 22.164062 L 78.546875 22.164062 C 77.007812 22.164062 76.34375 22.996094 76.34375 25.28125 L 76.34375 35.886719 C 76.34375 35.886719 76.011719 38.714844 76.925781 39.464844 C 77.839844 40.25 78.214844 40.335938 78.132812 42.167969 C 78.089844 43.996094 79.667969 43.871094 79.625 42.167969 C 79.542969 40.460938 78.960938 40.585938 79.75 40.085938 L 79.75 40.046875 C 80.539062 39.546875 81.164062 39.214844 81.164062 35.808594 L 81.164062 32.382812 L 82.574219 32.382812 C 83.101562 32.371094 83.585938 32.664062 83.824219 33.132812 C 84.113281 33.628906 84.113281 34.296875 84.113281 35.75 C 84.113281 37.910156 84.78125 38.871094 86.316406 38.871094 L 87.109375 38.871094 C 88.359375 38.871094 89.148438 38.371094 89.351562 37.039062 C 88.6875 36.375 88.566406 35.542969 88.566406 34.210938 Z M 83.574219 29.058594 C 83.253906 29.222656 82.898438 29.308594 82.535156 29.308594 L 81.164062 29.308594 L 81.164062 26.523438 L 82.535156 26.523438 C 82.898438 26.519531 83.253906 26.605469 83.574219 26.769531 C 83.9375 27.027344 84.140625 27.453125 84.117188 27.894531 C 84.132812 28.347656 83.929688 28.777344 83.574219 29.058594 Z M 83.574219 29.058594 "/>
<path style=" stroke:none;fill-rule:nonzero;fill:rgb(100%,88.627451%,54.901961%);fill-opacity:1;" d="M 79.335938 18.417969 C 79.75 18.417969 80.457031 18.125 80.457031 19.125 C 80.390625 20.25 81.246094 21.214844 82.371094 21.285156 L 82.617188 21.285156 C 83.679688 21.300781 84.558594 20.472656 84.613281 19.414062 L 84.613281 16.011719 C 84.613281 15.390625 84.53125 13.640625 84.613281 13.144531 C 84.820312 10.523438 83.242188 9.320312 81.621094 8.65625 C 80.46875 8.230469 79.269531 7.953125 78.046875 7.824219 C 77.175781 7.742188 76.507812 7.492188 76.507812 6.785156 C 76.507812 6.078125 77.089844 5.828125 77.882812 5.828125 C 79.792969 5.828125 80.082031 7.117188 81.789062 7.117188 C 82.792969 7.152344 83.644531 6.378906 83.699219 5.371094 L 83.699219 5.164062 C 83.699219 3.328125 81.746094 1.871094 79.003906 1.871094 L 77.296875 1.871094 C 73.597656 1.871094 71.890625 4.738281 71.890625 7.398438 C 71.890625 9.933594 73.261719 11.351562 74.800781 11.972656 C 75.902344 12.433594 77.066406 12.714844 78.25 12.804688 C 79.292969 12.890625 79.828125 13.222656 79.828125 13.847656 C 79.828125 14.46875 79.207031 14.761719 78.25 14.761719 C 75.339844 14.761719 75.132812 12.929688 73.554688 12.929688 C 73.097656 12.914062 72.652344 13.078125 72.316406 13.390625 C 71.980469 13.703125 71.785156 14.136719 71.769531 14.59375 L 71.769531 14.804688 C 71.769531 16.921875 73.972656 18.710938 77.175781 18.710938 C 77.214844 18.628906 78.960938 18.417969 79.335938 18.417969 "/>
<path style=" stroke:none;fill-rule:nonzero;fill:rgb(100%,88.627451%,54.901961%);fill-opacity:1;" d="M 70.894531 15.214844 L 67.652344 3.988281 C 67.320312 2.820312 66.78125 1.824219 65.449219 1.824219 L 64.328125 1.824219 C 62.996094 1.824219 62.414062 2.945312 62.125 3.945312 L 58.765625 15.425781 C 58.640625 15.964844 58.519531 16.546875 58.433594 17.128906 L 58.433594 17.167969 C 58.101562 18.832031 57.9375 19.5 58.433594 19.5 C 58.933594 19.5 59.429688 19.332031 59.722656 19.746094 C 60.011719 20.160156 59.597656 20.371094 59.472656 21.699219 C 59.445312 21.894531 59.472656 22.09375 59.554688 22.273438 C 59.144531 22.195312 58.726562 22.15625 58.308594 22.160156 L 57.808594 22.160156 C 55.859375 22.117188 54.011719 23.035156 52.863281 24.609375 C 51.617188 26.234375 51.117188 28.226562 51.117188 30.511719 L 51.117188 30.679688 C 51.125 32.5 51.234375 34.316406 51.449219 36.125 C 51.652344 38.332031 51.539062 40.558594 51.117188 42.734375 C 50.621094 44.605469 53.652344 45.1875 53.40625 42.734375 C 53.15625 40.28125 52.90625 39.40625 53.03125 37.910156 C 54.257812 38.660156 55.667969 39.046875 57.105469 39.035156 C 58.167969 39.105469 59.203125 38.691406 59.929688 37.910156 C 60.183594 38.605469 60.855469 39.058594 61.59375 39.035156 L 61.964844 39.035156 C 63.007812 39.035156 63.503906 38.410156 63.503906 36.789062 L 63.503906 33.046875 C 63.503906 31.089844 62.671875 30.46875 61.261719 30.46875 L 59.429688 30.46875 C 57.851562 30.46875 57.3125 30.964844 57.3125 32.046875 C 57.3125 33.046875 57.8125 33.417969 58.722656 33.503906 C 58.601562 34.542969 58.101562 34.917969 57.4375 34.917969 C 56.816406 34.929688 56.265625 34.519531 56.105469 33.917969 C 55.816406 32.933594 55.6875 31.910156 55.730469 30.886719 L 55.730469 30.136719 C 55.730469 29.015625 55.855469 28.015625 56.230469 27.351562 C 56.558594 26.773438 57.1875 26.433594 57.851562 26.476562 C 58.683594 26.476562 59.222656 26.769531 59.636719 27.726562 C 60.011719 28.558594 60.386719 29.097656 61.507812 29.097656 C 62.632812 29.097656 63.460938 28.226562 63.460938 26.726562 C 63.425781 24.863281 62.257812 23.210938 60.519531 22.550781 C 60.710938 22.476562 60.828125 22.28125 60.800781 22.074219 C 60.679688 21.40625 60.679688 20.824219 60.554688 20.328125 C 60.429688 19.828125 61.21875 19.121094 61.675781 19.039062 C 62.171875 18.957031 62.214844 18.25 62.253906 17.542969 L 62.753906 15.796875 L 66.082031 15.796875 L 66.578125 17.460938 C 66.914062 18.542969 67.496094 18.707031 68.328125 18.707031 L 69.695312 18.707031 C 70.570312 18.707031 71.191406 18.292969 71.191406 17.128906 C 71.222656 16.476562 71.121094 15.828125 70.894531 15.214844 Z M 63.703125 12.722656 L 64.496094 10.101562 L 65.242188 12.722656 Z M 63.703125 12.722656 "/>
<path style=" stroke:none;fill-rule:nonzero;fill:rgb(100%,88.627451%,54.901961%);fill-opacity:1;" d="M 56.105469 18.625 C 57.144531 18.625 57.894531 17.75 57.894531 16.460938 C 57.894531 15.171875 57.1875 14.300781 56.105469 14.300781 L 51.949219 14.300781 L 51.949219 12.0625 L 53.609375 12.0625 C 54.527344 12.0625 55.109375 11.3125 55.109375 10.230469 C 55.109375 9.152344 54.527344 8.402344 53.609375 8.402344 L 51.949219 8.402344 L 51.949219 6.117188 L 56.105469 6.117188 C 57.144531 6.117188 57.894531 5.246094 57.894531 3.957031 C 57.894531 2.667969 57.1875 1.792969 56.105469 1.792969 L 49.332031 1.792969 C 47.753906 1.792969 47.132812 2.625 47.132812 4.914062 L 47.132812 15.464844 C 47.132812 16.171875 46.964844 18.378906 48.210938 18.378906 C 49.460938 18.378906 50.292969 18.710938 50.371094 19.210938 C 50.453125 19.707031 50.371094 20.703125 50.828125 20.953125 C 51.285156 21.203125 52.824219 21.910156 53.074219 20.953125 C 53.320312 19.996094 52.574219 18.792969 53.695312 18.628906 C 54.496094 18.542969 55.304688 18.542969 56.105469 18.628906 "/>
<path style=" stroke:none;fill-rule:nonzero;fill:rgb(100%,88.627451%,54.901961%);fill-opacity:1;" d="M 45.175781 11.101562 C 44.871094 10.707031 44.472656 10.390625 44.015625 10.1875 C 44.433594 9.980469 44.804688 9.683594 45.09375 9.316406 C 45.691406 8.480469 45.996094 7.472656 45.964844 6.445312 C 46.058594 4.804688 45.222656 3.25 43.808594 2.417969 C 42.964844 1.960938 42.019531 1.746094 41.0625 1.792969 L 35.660156 1.792969 C 34.082031 1.792969 33.457031 2.625 33.457031 4.914062 L 33.457031 19.289062 C 33.457031 20.246094 33.789062 21.535156 35.160156 21.535156 C 36.53125 21.535156 37.320312 20.992188 37.320312 20.078125 C 37.320312 19.164062 37.199219 18.625 37.863281 18.625 C 38.527344 18.625 42.265625 18.789062 43.847656 18 C 45.21875 17.292969 46.050781 15.804688 46.050781 13.96875 C 46.082031 12.941406 45.773438 11.933594 45.175781 11.101562 Z M 39.609375 6.109375 C 39.960938 6.070312 40.316406 6.15625 40.605469 6.359375 C 40.691406 6.402344 40.730469 6.484375 40.816406 6.566406 C 41.070312 6.867188 41.191406 7.257812 41.152344 7.652344 C 41.113281 8.042969 40.914062 8.402344 40.605469 8.648438 C 40.296875 8.808594 39.957031 8.894531 39.609375 8.898438 L 38.320312 8.898438 L 38.238281 6.109375 Z M 40.855469 14.050781 C 40.535156 14.214844 40.179688 14.300781 39.816406 14.300781 L 38.238281 14.300781 L 38.238281 11.558594 L 39.816406 11.558594 C 40.179688 11.542969 40.539062 11.628906 40.855469 11.808594 C 40.941406 11.851562 40.980469 11.933594 41.0625 12.015625 C 41.324219 12.304688 41.453125 12.691406 41.410156 13.082031 C 41.371094 13.46875 41.171875 13.820312 40.855469 14.050781 Z M 40.855469 14.050781 "/>
<path style=" stroke:none;fill-rule:nonzero;fill:rgb(100%,88.627451%,54.901961%);fill-opacity:1;" d="M 29.886719 10.191406 C 30.324219 9.996094 30.710938 9.695312 31.007812 9.320312 C 31.605469 8.484375 31.910156 7.472656 31.878906 6.445312 C 31.972656 4.804688 31.144531 3.25 29.730469 2.414062 C 28.890625 1.960938 27.941406 1.742188 26.988281 1.789062 L 21.582031 1.789062 C 20.003906 1.789062 19.378906 2.621094 19.378906 4.910156 L 19.378906 15.464844 C 19.378906 17.753906 20.046875 18.585938 21.582031 18.585938 L 21.996094 18.585938 C 23.578125 18.585938 24.203125 17.753906 24.203125 15.464844 L 24.203125 12.0625 L 25.613281 12.0625 C 26.148438 12.046875 26.644531 12.359375 26.859375 12.851562 C 27.152344 13.347656 27.152344 14.015625 27.152344 15.46875 C 27.152344 16.925781 27.109375 17.214844 27.109375 18.589844 C 27.109375 19.964844 27.734375 21.125 28.894531 21.125 C 30.058594 21.125 31.554688 21.082031 31.554688 18.796875 L 31.554688 13.933594 C 31.554688 12.6875 31.472656 11.898438 30.976562 11.191406 C 30.71875 10.757812 30.339844 10.40625 29.886719 10.191406 Z M 26.609375 8.648438 C 26.289062 8.816406 25.933594 8.898438 25.570312 8.898438 L 24.203125 8.898438 L 24.203125 6.152344 L 25.570312 6.152344 C 25.9375 6.113281 26.304688 6.199219 26.609375 6.402344 C 26.695312 6.445312 26.734375 6.527344 26.777344 6.570312 C 27.351562 7.152344 27.234375 8.109375 26.609375 8.648438 Z M 26.609375 8.648438 "/>
<path style=" stroke:none;fill-rule:nonzero;fill:rgb(100%,88.627451%,54.901961%);fill-opacity:1;" d="M 3.949219 19.5 C 3.824219 20.410156 4.117188 21.785156 4.035156 22.949219 C 3.949219 24.113281 2.621094 23.820312 2.535156 22.949219 C 2.453125 22.078125 2.785156 21.035156 2.910156 19.871094 C 3.035156 18.707031 2.285156 18.292969 2.039062 17.582031 C 1.828125 16.910156 1.746094 16.207031 1.789062 15.503906 L 1.789062 4.898438 C 1.789062 2.609375 2.453125 1.777344 4.035156 1.777344 L 6.78125 1.777344 C 7.820312 1.777344 8.402344 2.070312 8.777344 3.316406 L 10.105469 8.054688 L 11.226562 3.285156 C 11.519531 2.082031 12.140625 1.75 13.265625 1.75 L 15.800781 1.75 C 17.378906 1.75 18.003906 2.582031 18.003906 4.867188 L 18.003906 15.425781 C 18.003906 17.710938 17.339844 18.542969 15.800781 18.542969 L 15.382812 18.542969 C 13.808594 18.542969 13.183594 17.710938 13.183594 15.425781 L 13.183594 9.023438 L 11.226562 17.261719 C 10.894531 18.34375 10.394531 18.632812 9.648438 18.632812 L 9.355469 18.632812 C 8.566406 18.632812 7.941406 18.300781 7.652344 17.179688 L 5.535156 9.023438 L 5.535156 15.46875 C 5.535156 16.171875 5.453125 16.871094 5.285156 17.550781 C 5.160156 17.925781 4.082031 18.589844 3.957031 19.503906 "/>
</g>
</svg>
